<?xml version="1.0" encoding="UTF-8"?>
<!DOCTYPE svg PUBLIC "-//W3C//DTD SVG 1.1//EN" "http://www.w3.org/Graphics/SVG/1.1/DTD/svg11.dtd">
<!-- Creator: CorelDRAW X7 -->
<svg xmlns="http://www.w3.org/2000/svg" xml:space="preserve" width="53.1622mm" height="51.4932mm" version="1.1" style="shape-rendering:geometricPrecision; text-rendering:geometricPrecision; image-rendering:optimizeQuality; fill-rule:evenodd; clip-rule:evenodd"
viewBox="0 0 3243 3141"
 xmlns:xlink="http://www.w3.org/1999/xlink">
 <defs>
  <style type="text/css">
   <![CDATA[
    .fil0 {fill:#FF2949}
    .fil1 {fill:#414141;fill-rule:nonzero}
    .fil2 {fill:#414141;fill-rule:nonzero}
   ]]>
  </style>
 </defs>
 <g id="Layer_x0020_1">
  <metadata id="CorelCorpID_0Corel-Layer"/>
  <polygon class="fil0" points="1133,1608 1133,420 1858,0 2224,209 1858,420 1499,215 1499,1391 1858,1608 1499,1816 "/>
  <path class="fil1" d="M174 2583l0 77c0,39 -17,53 -45,53 -27,0 -44,-14 -44,-53l0 -293c0,-38 17,-53 44,-53 28,0 45,15 45,53l0 58 80 0 0 -52c0,-87 -43,-137 -127,-137 -84,0 -127,50 -127,137l0 282c0,86 43,136 127,136 84,0 127,-50 127,-136l0 -72 -80 0z"/>
  <path id="1" class="fil1" d="M432 2367c0,-38 17,-53 44,-53 28,0 45,15 45,53l0 293c0,39 -17,54 -45,54 -27,0 -44,-15 -44,-54l0 -293zm-85 288c0,86 46,136 129,136 84,0 130,-50 130,-136l0 -282c0,-87 -46,-137 -130,-137 -83,0 -129,50 -129,137l0 282z"/>
  <polygon id="2" class="fil1" points="709,2785 934,2785 934,2707 794,2707 794,2243 709,2243 "/>
  <path id="3" class="fil1" d="M1098 2367c0,-38 17,-53 44,-53 27,0 44,15 44,53l0 293c0,39 -17,54 -44,54 -27,0 -44,-15 -44,-54l0 -293zm-85 288c0,86 45,136 129,136 84,0 129,-50 129,-136l0 -282c0,-87 -45,-137 -129,-137 -84,0 -129,50 -129,137l0 282z"/>
  <path id="4" class="fil1" d="M1639 2785c-8,-20 -9,-40 -9,-66l0 -84c0,-56 -14,-97 -56,-115 37,-18 55,-54 55,-110l0 -43c0,-83 -38,-124 -126,-124l-129 0 0 542 86 0 0 -221 29 0c39,0 56,19 56,69l0 85c0,44 3,53 8,67l86 0zm-138 -465c30,0 43,17 43,56l0 53c0,44 -19,58 -51,58l-33 0 0 -167 41 0z"/>
  <path id="5" class="fil1" d="M1863 2243l-129 0 0 542 134 0c85,0 129,-45 129,-129l0 -44c0,-57 -17,-98 -63,-116 38,-18 55,-54 55,-109l0 -20c0,-83 -38,-124 -126,-124l0 0zm-6 298c39,0 55,15 55,66l0 47c0,40 -15,53 -44,53l-49 0 0 -166 38 0zm3 -221c30,0 44,17 44,56l0 30c0,43 -20,57 -52,57l-33 0 0 -143 41 0z"/>
  <polygon id="6" class="fil1" points="2096,2785 2322,2785 2322,2707 2182,2707 2182,2243 2096,2243 "/>
  <polygon id="7" class="fil1" points="2407,2785 2492,2785 2492,2243 2407,2243 "/>
  <polygon id="8" class="fil1" points="2784,2785 2872,2785 2872,2243 2796,2243 2796,2567 2709,2243 2602,2243 2602,2785 2678,2785 2678,2392 "/>
  <path id="9" class="fil1" d="M2981 2785l135 0c85,0 127,-47 127,-134l0 -274c0,-87 -42,-134 -127,-134l-135 0 0 542zm134 -465c27,0 43,14 43,53l0 282c0,38 -16,52 -43,52l-49 0 0 -387 49 0z"/>
  <path class="fil2" d="M412 3048c6,0 12,0 17,-2 4,-2 8,-4 11,-7 4,-3 6,-6 7,-11 2,-4 3,-9 3,-14 0,-5 -1,-9 -3,-13 -1,-4 -3,-8 -7,-11 -3,-3 -7,-5 -11,-6 -5,-2 -11,-3 -17,-3l-26 0 0 67 26 0zm0 -93c12,0 23,1 32,4 9,3 17,7 23,12 6,6 10,12 13,19 3,7 5,15 5,24 0,9 -2,17 -5,25 -3,8 -8,14 -14,19 -6,6 -13,10 -22,13 -9,3 -20,5 -32,5l-26 0 0 65 -35 0 0 -186 61 0z"/>
  <path id="1" class="fil2" d="M747 3071l-22 -62c-2,-3 -3,-6 -4,-10 -1,-4 -2,-8 -3,-12 -2,4 -3,8 -4,12 -1,4 -2,7 -3,10l-23 62 59 0zm62 70l-27 0c-3,0 -6,0 -8,-2 -1,-1 -3,-3 -4,-6l-14 -38 -77 0 -14 38c-1,2 -2,4 -4,6 -2,2 -4,2 -7,2l-28 0 74 -186 35 0 74 186z"/>
  <polygon id="2" class="fil2" points="1014,3141 979,3141 979,2955 1014,2955 "/>
  <path id="3" class="fil2" d="M1363 2955l0 186 -18 0c-2,0 -5,0 -6,-1 -2,-1 -4,-2 -6,-5l-97 -124c0,6 0,11 0,16l0 114 -30 0 0 -186 18 0c2,0 3,0 4,0 1,0 2,0 3,1 1,0 1,1 2,1 1,1 2,2 3,3l98 125c-1,-3 -1,-6 -1,-9 0,-3 0,-5 0,-8l0 -113 30 0z"/>
  <polygon id="4" class="fil2" points="1686,2983 1630,2983 1630,3141 1595,3141 1595,2983 1539,2983 1539,2955 1686,2955 "/>
  <path id="5" class="fil2" d="M1931 3114c6,0 12,-1 16,-2 5,-2 8,-4 11,-6 2,-3 4,-6 5,-9 2,-4 2,-7 2,-11 0,-4 -1,-8 -2,-11 -1,-3 -3,-6 -6,-9 -3,-2 -6,-4 -11,-5 -4,-1 -9,-2 -15,-2l-35 0 0 55 35 0zm-35 -133l0 54 27 0c12,0 21,-2 27,-6 6,-4 9,-11 9,-21 0,-9 -2,-16 -8,-20 -5,-4 -14,-7 -26,-7l-29 0zm29 -26c13,0 23,1 32,3 8,2 16,6 21,10 6,4 10,10 12,16 3,6 4,13 4,20 0,5 -1,9 -2,13 -1,4 -3,8 -6,11 -3,4 -6,7 -10,10 -4,2 -9,5 -15,7 26,6 38,19 38,41 0,8 -1,16 -4,22 -3,7 -8,13 -13,18 -6,5 -13,8 -22,11 -8,3 -18,4 -28,4l-71 0 0 -186 64 0z"/>
  <path id="6" class="fil2" d="M2277 3071l-22 -62c-1,-3 -3,-6 -4,-10 -1,-4 -2,-8 -3,-12 -2,4 -3,8 -4,12 -1,4 -2,7 -3,10l-23 62 59 0zm62 70l-27 0c-3,0 -6,0 -8,-2 -1,-1 -3,-3 -4,-6l-14 -38 -77 0 -14 38c-1,2 -2,4 -4,6 -2,2 -4,2 -7,2l-28 0 74 -186 35 0 74 186z"/>
  <polygon id="7" class="fil2" points="2618,3113 2618,3141 2509,3141 2509,2955 2543,2955 2543,3113 "/>
  <polygon id="8" class="fil2" points="2903,3113 2903,3141 2793,3141 2793,2955 2828,2955 2828,3113 "/>
 </g>
</svg>
